# xmcd
#
# Track frame offsets:
#	150
#	25718
#	50637
#	81186
#	101056
#	129042
#	148420
#	173611
#	195042
#	219311
#	232807
#	260911
#	290676
#
# Disc length: 4209 seconds
#
# Revision: 0
# Processed by: cddbd v1.5.2PL0 Copyright (c) Steve Scherf et al.
# Submitted via: EasyCDDAExtractor 15.2.0.1
#
DISCID=b2106f0d
DTITLE=James Junkin Jr - Swamp Music
DYEAR=1900
DGENRE=
TTITLE0=Jesus Bring Me Whiskey
TTITLE1=Jail Ain't No Place For Feelin' Lonesome
TTITLE2=Goodnight Irene
TTITLE3=All The Old Crow I've Tasted
TTITLE4=Down The River
TTITLE5=Livin' In The Memories
TTITLE6=Yeah Yeah Yeah
TTITLE7=Please Don't Take My Sweetheart Away
TTITLE8=Alligator Wine
TTITLE9=The Devils Polka
TTITLE10=Scrapin' Jr Off The Floor
TTITLE11=Sun's Gonna Shine
TTITLE12=Yeah Yeah Yeah
EXTD=
EXTT0=
EXTT1=
EXTT2=
EXTT3=
EXTT4=
EXTT5=
EXTT6=
EXTT7=
EXTT8=
EXTT9=
EXTT10=
EXTT11=
EXTT12=
PLAYORDER=
